<?xml version="1.0" standalone="no"?>
<!DOCTYPE svg PUBLIC "-//W3C//DTD SVG 1.1//EN" "http://www.w3.org/Graphics/SVG/1.1/DTD/svg11.dtd" >
<svg xmlns="http://www.w3.org/2000/svg">
<metadata>
Created by FontForge 20120731 at Thu May 11 16:11:35 2017
 By admin
</metadata>
<defs>
<font id="iconfont" horiz-adv-x="1024" >
  <font-face 
    font-family="iconfont"
    font-weight="500"
    font-stretch="normal"
    units-per-em="1024"
    panose-1="2 0 6 3 0 0 0 0 0 0"
    ascent="896"
    descent="-128"
    x-height="792"
    bbox="-0.142857 -142 1529 896"
    underline-thickness="0"
    underline-position="0"
    unicode-range="U+0078-E7BC"
  />
<missing-glyph 
 />
    <glyph glyph-name=".notdef" 
 />
    <glyph glyph-name=".notdef" 
 />
    <glyph glyph-name=".null" horiz-adv-x="0" 
 />
    <glyph glyph-name="nonmarkingreturn" horiz-adv-x="341" 
 />
    <glyph glyph-name="x" unicode="x" horiz-adv-x="1001" 
d="M281 543q-27 -1 -53 -1h-83q-18 0 -36.5 -6t-32.5 -18.5t-23 -32t-9 -45.5v-76h912v41q0 16 -0.5 30t-0.5 18q0 13 -5 29t-17 29.5t-31.5 22.5t-49.5 9h-133v-97h-438v97zM955 310v-52q0 -23 0.5 -52t0.5 -58t-10.5 -47.5t-26 -30t-33 -16t-31.5 -4.5q-14 -1 -29.5 -0.5
t-29.5 0.5h-32l-45 128h-439l-44 -128h-29h-34q-20 0 -45 1q-25 0 -41 9.5t-25.5 23t-13.5 29.5t-4 30v167h911zM163 247q-12 0 -21 -8.5t-9 -21.5t9 -21.5t21 -8.5q13 0 22 8.5t9 21.5t-9 21.5t-22 8.5zM316 123q-8 -26 -14 -48q-5 -19 -10.5 -37t-7.5 -25t-3 -15t1 -14.5
t9.5 -10.5t21.5 -4h37h67h81h80h64h36q23 0 34 12t2 38q-5 13 -9.5 30.5t-9.5 34.5q-5 19 -11 39h-368zM336 498v228q0 11 2.5 23t10 21.5t20.5 15.5t34 6h188q31 0 51.5 -14.5t20.5 -52.5v-227h-327z" />
    <glyph glyph-name="shezhi" unicode="&#xe600;" horiz-adv-x="1000" 
d="M897 496l-71 16q-7 24 -20 50l38 63q12 19 13 39t-13 39l-39 38q-15 15 -39 15q-22 0 -40 -12l-62 -40q-25 13 -50 21l-16 72q-3 21 -19.5 37.5t-37.5 16.5h-55q-21 0 -35.5 -16.5t-19.5 -38.5l-17 -70q-28 -9 -54 -22l-63 40q-18 12 -40 12q-24 0 -39 -15l-39 -38
q-14 -19 -13 -39t13 -39l40 -66q-12 -25 -19 -47l-70 -16q-21 -4 -37.5 -20t-16.5 -38v-54q0 -21 16 -35.5t38 -19.5l71 -18q7 -21 18 -43l-40 -67q-12 -19 -13 -39t13 -38l39 -39q15 -15 39 -15q22 0 40 12l64 41q26 -14 53 -23l18 -70q5 -22 19 -38.5t35 -16.5h55
q22 0 38 17t20 38l16 71q25 8 49 21l62 -40q18 -12 40 -12q24 0 39 15l39 39q14 18 13 38t-13 39l-38 63q11 24 19 47l71 18q22 5 38.5 19.5t16.5 35.5v54q0 22 -16.5 38t-37.5 20zM907 384q0 -2 -2.5 -4t-7.5 -4.5t-11 -4.5l-71 -17l-24 -6l-7 -23q-7 -21 -17 -41l-11 -21
l12 -21l39 -64q3 -5 4.5 -10.5t1.5 -8.5v-5l-39 -38q-2 -2 -8 -2q-9 0 -15 4l-1 1h-1l-61 40l-22 13l-22 -11q-21 -11 -43 -18l-24 -8l-5 -25l-16 -71v-1q-1 -7 -6 -13t-9 -6h-55q-1 0 -3 2.5t-4.5 8t-4.5 11.5l-17 70l-6 24l-24 7q-23 7 -46 19l-23 12l-21 -13l-63 -41h-1
l-1 -1q-7 -4 -15 -4q-6 0 -8 2l-39 38v5t1.5 8.5t5.5 10.5l40 67l12 21l-10 21q-10 19 -16 38l-8 23l-23 6l-72 18q-6 1 -11 3.5t-7.5 4.5t-2.5 4v54q0 4 6 9t13 6v0h1l71 16l24 5l8 24q6 19 17 41l10 22l-12 20l-41 67q-3 6 -4.5 11.5t-1.5 8v4.5l39 38q2 2 8 2q9 0 15 -4
l1 -1h1l63 -40l21 -14l23 12q23 12 46 19l23 8l6 23l18 71q1 6 3.5 11t5 7.5t3.5 2.5h55q3 0 8 -6t6 -12v-1l1 -1l15 -71l6 -24l24 -8q21 -7 43 -18l22 -12l22 14l61 39h1l1 1q6 4 15 4q6 0 8 -2l39 -38v-4.5t-2 -8.5t-5 -11l-38 -63l-12 -21l11 -22q11 -22 18 -43l7 -25
l25 -5l70 -16h1h1q6 -1 12 -6t6 -9v-54zM513.5 589q-72.5 0 -124 -51.5t-51.5 -124t51.5 -124t124 -51.5t124 51.5t51.5 124t-51.5 124t-124 51.5zM514 281q-55 0 -93.5 38.5t-38.5 93t38.5 93.5t93.5 39t93.5 -39t38.5 -93.5t-38.5 -93t-93.5 -38.5z" />
    <glyph glyph-name="saoba" unicode="&#xe608;" 
d="M683 356q-42 27 -87 33t-78.5 -4.5t-61 -25.5t-41.5 -28l-15 -14q-60 -62 -133 -50q-8 1 -8 2q83 -169 252 -159q62 3 109 26q0 -17 -21 -29t-41 -16l-20 -4q5 -2 13.5 -5.5t33.5 -8.5t48.5 -3t53 18.5t52 48t25 65.5t-9.5 60.5t-28.5 48t-29 33.5t-13.5 12zM718 427
q-32 20 -53 17t-31 -16l-10 -14q26 -7 49 -19.5t37.5 -25t25 -23.5t14.5 -18l4 -7q11 11 14 26t-8.5 37t-41.5 43zM899 648l-152 -191q0 -1 -1 -3t-1 -7t2 -9t9.5 -7t20.5 -3l152 191q1 0 3.5 9t-5 16.5t-28.5 3.5zM857 138q34 -56 -27 -92l-14 -7q8 -16 1 -31t-19 -26
l-13 -11q-30 -28 -52 -25t-35.5 13t-13.5 12q-33 -22 -61.5 -24t-45.5 9.5t-29.5 28t-17.5 28.5t-5 13l7.5 -12.5t20 -23.5t32.5 -24t43.5 -3.5t53.5 28.5l5.5 -5.5t14.5 -9.5t21.5 -8.5t24.5 1.5t26 16q1 1 4 3.5t10 10.5t10.5 15t4 16.5t-6.5 17.5q2 0 8.5 1.5t18.5 7
t20.5 15.5t14 26.5t-0.5 39.5zM461 -8q-5 -18 -16 -27t-22 -10t-21.5 1t-17.5 5l-6 3q-9 -27 -59 -17q-54 6 -54 64q-18 5 -31.5 12.5t-20.5 16.5t-11 18.5t-4.5 19t0.5 18.5t4 17t5.5 14t4.5 9.5t2 2.5q-2 -4 -4 -11t-4 -25t2 -33t21 -29t47 -19q1 0 0 -5.5t1.5 -14.5
t6.5 -17.5t13.5 -15t23.5 -7.5q2 0 5 -0.5t11.5 -1t15 1t12.5 6.5t8 13q13 -14 37 -16q30 -3 51 27zM182 154q-105 33 -75 106q7 17 18 29q-21 15 -29 32.5t-5.5 30.5t10.5 26t12.5 17.5l7.5 7.5v0q34 30 65.5 25.5t54.5 -18t23 -16.5q19 44 47 59t55 6t50.5 -25.5
t38.5 -31.5t15 -16q-3 3 -8 7.5t-20 15.5t-30 18.5t-35.5 12.5t-38.5 2t-37.5 -18t-33.5 -43q-4 3 -11 7.5t-26 13.5t-35.5 12.5t-35 -1t-28.5 -21.5q-2 -3 -5.5 -7t-10 -16.5t-7.5 -24t6.5 -26t25.5 -24.5v0q-28 -36 -24 -73q4 -44 66 -67z" />
    <glyph glyph-name="31" unicode="&#xe630;" 
d="M65 650v-572h894v572h-894zM929 108h-834v512h834v-512zM326 -20h372v-30h-372v30z" />
    <glyph glyph-name="home" unicode="&#xe601;" 
d="M1024 288l-192 192v288h-128v-160l-192 192l-512 -512v-32h128v-320h320v192h128v-192h320v320h128v32z" />
    <glyph glyph-name="app" unicode="&#xe602;" 
d="M58 141q0 -87 62 -149t149 -62t149 62t62 149v211h-211q-87 0 -149 -62t-62 -149zM403 141q0 -56 -39 -95t-94.5 -39t-95 39.5t-39.5 95t39.5 94.5t94.5 39h134v-134zM966 627q0 87 -62 149t-149 62t-149 -62t-62 -149v-211h211q87 0 149 62t62 149zM621 627q0 56 39 95
t94.5 39t95 -39.5t39.5 -95t-39.5 -94.5t-94.5 -39h-134v134zM269 416h211v211q0 87 -62 149t-149 62t-149 -62t-62 -149t62 -149t149 -62zM269.5 761q55.5 0 94.5 -39.5t39 -94.5v-134h-134q-56 0 -95 39t-39 94.5t39.5 95t95 39.5zM755 352h-211v-211q0 -87 62 -149
t149 -62t149 62t62 149t-62 149t-149 62zM754.5 7q-55.5 0 -94.5 39.5t-39 94.5v134h134q56 0 95 -39t39 -94.5t-39.5 -95t-95 -39.5z" />
    <glyph glyph-name="diannao04" unicode="&#xe603;" horiz-adv-x="1232" 
d="M143 779v-641q1 -3 7 -3h374h4v-2v-1l-23 -91q-1 -3 -4 -3q-56 -3 -89 -10q-5 -1 -21 -6q-3 -1 -6 -3q-6 -4 0 -8t10 -5q26 -6 36 -7q51 -8 119 -9q54 -2 97 -1q58 0 113 5q45 4 69 10q4 1 12 4q3 1 6 3q7 4 0 8q-10 5 -16 6q-31 6 -50 9q-7 0 -51 4q-2 0 -2 3l-17 64
q-4 18 -7 27v3h4h374q6 0 8 3v641h-947zM616 161q-8 0 -13.5 5.5t-5.5 13.5t5.5 13.5t13.5 5.5t14 -5.5t6 -13t-6 -13.5t-14 -6zM1053 259h-874v483h873v-483h1zM563 400v0v0q1 -1 4 -3l1 -0.5l1 -0.5q3 -2 7 -2t8 2l1 0.5l1 0.5q3 2 4 3v0v0l157 156q5 6 5 13.5t-5.5 13.5
t-13.5 6t-14 -6l-142 -142l-63 64q-6 6 -14 6t-14 -5.5t-6 -13.5t6 -14z" />
    <glyph glyph-name="menu" unicode="&#xe609;" 
d="M128 683h768q18 0 30.5 -12.5t12.5 -30.5t-12.5 -30.5t-30.5 -12.5h-768q-18 0 -30.5 12.5t-12.5 30.5t12.5 30.5t30.5 12.5zM128 171h768q18 0 30.5 -12.5t12.5 -30.5t-12.5 -30.5t-30.5 -12.5h-768q-18 0 -30.5 12.5t-12.5 30.5t12.5 30.5t30.5 12.5zM128 427h768
q18 0 30.5 -12.5t12.5 -30.5t-12.5 -30.5t-30.5 -12.5h-768q-18 0 -30.5 12.5t-12.5 30.5t12.5 30.5t30.5 12.5z" />
    <glyph glyph-name="inbox" unicode="&#xe60b;" 
d="M512 853q18 0 30.5 -12.5t12.5 -29.5v-495l140 141q12 12 30 12q19 0 31 -12t12 -30t-12 -31l-214 -213q-12 -12 -30 -12t-30 12l-214 213q-12 13 -12 31q0 17 12.5 29.5t30.5 12.5t30 -12l140 -141v495q0 17 12.5 29.5t30.5 12.5v0zM939 256q17 0 29.5 -12.5t12.5 -30.5
v-170q0 -54 -37 -91t-90 -37h-683q-53 0 -91 37q-37 38 -37 91v170q0 18 12.5 30.5t30 12.5t30 -12.5t12.5 -30.5v-170q0 -18 12.5 -30.5t30.5 -12.5h683q18 0 30 12.5t12 30.5v170q0 18 12.5 30.5t30.5 12.5v0z" />
    <glyph glyph-name="spinner9" unicode="&#xe60c;" horiz-adv-x="1025" 
d="M512 896q-103 0 -196.5 -39.5t-162 -106.5t-109.5 -159.5t-44 -194.5q3 119 59 219.5t151 158.5t206 58q113 0 209 -60t151.5 -163t55.5 -225q0 -40 28 -68t68 -28t68 28t28 68q0 104 -40.5 199t-109 163.5t-163.5 109t-199 40.5v0zM512 -128q103 0 196.5 39.5t162 106.5
t110 159.5t43.5 194.5q-3 -119 -59 -219.5t-151 -158.5t-206 -58q-113 0 -209 60t-151.5 163t-55.5 225q0 40 -28 68t-68 28t-68 -28t-28 -68q0 -104 40.5 -199t109 -163.5t163.5 -109t199 -40.5v0z" />
    <glyph glyph-name="lajiqingli" unicode="&#xe604;" 
d="M913 341h-17v-260q0 -34 4.5 -69t8.5 -53l4 -19q0 -14 -10 -24t-24 -10h-734q-14 0 -24 10t-10 24q17 63 17 138v263h-17q-14 0 -24 10t-10 24v171q0 14 10 24t24 10h290v188q0 35 25 60t60 25h52q35 0 60 -25t25 -60v-188h290q14 0 24 -10t10 -24v-171q0 -14 -10 -24
t-24 -10zM324 -60v226q0 6 4 9.5t9 3.5h9q5 0 8.5 -3.5t3.5 -9.5v-226h145v226q0 6 4 9.5t9 3.5h9q5 0 9 -3.5t4 -9.5v-226h136v226q0 6 4 9.5t9 3.5h8q6 0 9.5 -3.5t3.5 -9.5v-226h171q-17 62 -17 138v263h-700v-263q0 -76 -17 -138h179zM913 529q0 7 -5 12t-12 5h-307v213
q0 25 -17.5 42.5t-42.5 17.5h-34q-25 0 -42.5 -17.5t-17.5 -42.5v-213h-307q-7 0 -12 -5t-5 -12v-136q0 -8 5 -13t12 -5h34h700h34q7 0 12 5t5 13v136z" />
    <glyph glyph-name="bingduchasha" unicode="&#xe605;" 
d="M512 -128q-9 3 -24.5 9t-61 27t-86.5 44.5t-91 61t-86.5 77.5t-61 92.5t-24.5 107.5v450l435 155l435 -155v-450q0 -55 -24 -107.5t-62.5 -93t-84.5 -76.5t-92.5 -61.5t-85 -44t-62.5 -27.5zM913 719l-401 143l-401 -143v-422q0 -40 13.5 -79t37 -71t53.5 -62t63 -53.5
t66.5 -44t63.5 -35.5t53.5 -25.5t36.5 -15.5l14 -5q8 3 22.5 8.5t56.5 25.5t79.5 41.5t84 57t79.5 72.5t56 86t23 100v422zM512 85q-131 0 -223.5 93t-92.5 223.5t92.5 223t223.5 92.5t223.5 -92.5t92.5 -223t-92.5 -223.5t-223.5 -93zM529 120q106 7 181.5 82.5t82.5 181.5
h-103q-5 -64 -51 -110t-110 -51v-103zM529 418h127q-6 50 -41.5 86t-85.5 41v-127zM656 384h-127v-127q50 6 85.5 41.5t41.5 85.5zM495 384h-127q6 -50 41.5 -85.5t85.5 -41.5v127zM495 120v103q-64 5 -110 51t-51 110h-103q7 -106 82.5 -181.5t181.5 -82.5zM495 682
q-106 -7 -181.5 -82.5t-82.5 -181.5h103q5 64 51 110t110 51v103zM368 418h127v127q-50 -5 -85.5 -41t-41.5 -86zM529 682v-103q64 -5 110 -51t51 -110h103q-7 106 -82.5 181.5t-181.5 82.5z" />
    <glyph glyph-name="msnui-software" unicode="&#xe6fc;" 
d="M929 692v-193q0 -46 -33 -79t-80 -33h-193q-47 0 -80 33t-33 79v193q0 47 33 80t80 33h193q47 0 80 -33t33 -80zM799 63q3 -2 5 -7q5 -7 11 -11t17 -4q9 0 15 4t6 9q0 8 -6 11.5t-20 6.5q-15 4 -24.5 8t-15.5 11t-6 17q0 9 5.5 17t16 12.5t24.5 4.5q12 0 21 -2t15.5 -6.5
t9.5 -9t3 -9.5t-3.5 -8.5t-9.5 -3.5q-5 0 -8 3t-7 8q-4 4 -8.5 6.5t-12.5 2.5t-13 -3t-5 -9q0 -4 3.5 -7t10.5 -5t18 -5q14 -3 23 -8t13.5 -11.5t4.5 -14.5q0 -12 -6 -21t-18 -13.5t-28 -4.5t-27.5 5t-17 12.5t-5.5 14.5q0 5 3.5 8.5t8.5 3.5t7 -2v0zM656 21q-8 0 -12.5 5
t-4.5 15v123q0 11 5 15.5t16 4.5h41q19 0 28.5 -3t17 -9t11 -15.5t3.5 -20.5q0 -25 -15 -37.5t-45 -12.5h-29v-45q0 -10 -4.5 -15t-11.5 -5v0zM728 135q0 11 -6 17q-7 8 -29 8h-21v-49h21q12 0 19.5 2.5t11.5 7.5t4 14zM594 53q0 -23 16.5 -40t40.5 -17h193q24 0 40.5 17
t16.5 40v193q0 24 -16.5 40.5t-40.5 16.5h-193q-24 0 -40.5 -16.5t-16.5 -40.5v-193zM957 246v-193q0 -47 -33 -80t-80 -33h-193q-47 0 -80 33t-33 80v193q0 47 33 80t80 33h193q47 0 80 -33t33 -80zM510 274v-193q0 -47 -33 -80t-79 -33h-193q-47 0 -80 33t-33 80v193
q0 47 33 80t80 33h193q46 0 79 -33t33 -80zM207 655q3 -6 5 -17l21 -93l23 87q3 11 5 16t6.5 9t13 4t13 -4t6 -9t4.5 -16l24 -87l21 93q1 8 2.5 12t5 7.5t9.5 3.5t10.5 -4.5t4.5 -10.5q0 -5 -2 -14l-27 -108q-3 -11 -4.5 -16t-6 -9t-12.5 -4q-7 0 -11.5 4t-6.5 8.5t-5 15.5
l-26 96l-26 -96q-3 -11 -4.5 -15.5t-6 -8.5t-12.5 -4q-6 0 -9.5 2.5t-6 6.5t-4.5 10l-2 10l-27 108q-2 9 -2 14q0 6 4 10.5t11 4.5q9 0 12 -6zM120 527q0 -23 16.5 -40t40.5 -17h193q23 0 40 17t17 40v193q0 24 -17 40.5t-40 16.5h-193q-24 0 -40.5 -16.5t-16.5 -40.5v-193z
M483 720v-193q0 -47 -33 -79.5t-80 -32.5h-193q-47 0 -80 32.5t-33 79.5v193q0 47 33 80t80 33h193q47 0 80 -33t33 -80z" />
    <glyph glyph-name="zhengpinbaozheng04" unicode="&#xe638;" 
d="M874.5 521.5q-72.5 72.5 -166 111.5t-196.5 39t-196.5 -39t-166 -111.5t-111 -166t-38.5 -195.5q0 -123 55 -232l25 13q-52 103 -52 219q0 98 38.5 187.5t103.5 154.5t154.5 103.5t187.5 38.5t187.5 -38.5t154.5 -103.5t103.5 -154.5t38.5 -187.5q0 -116 -52 -219l25 -13
q55 109 55 232q0 102 -38.5 195.5t-111 166zM376 181l101 -5l-101 -204l291 266l-91 4l91 203z" />
    <glyph glyph-name="gou1" unicode="&#xe616;" 
d="M476 -92q-97 0 -185 38t-151.5 101.5t-101.5 151.5t-38 185t38 185t101.5 151.5t151.5 101.5t185 38q161 0 289 -98q6 -5 7.5 -13.5t-4 -15t-14 -7.5t-14.5 4q-117 89 -264 89q-88 0 -168.5 -34.5t-139 -93t-93 -139t-34.5 -168.5t34.5 -168.5t93 -139t139 -93
t168.5 -34.5t168.5 34.5t139 93t93 139t34.5 168.5q0 8 6 14t14.5 6t14.5 -6t6 -14q0 -97 -38 -185t-101.5 -151.5t-151.5 -101.5t-185 -38zM473.5 158q-8.5 0 -14.5 6l-269 269l-35 -35q-6 -6 -14.5 -6t-14.5 6t-6 14.5t6 14.5l49 50q6 6 14.5 6t14.5 -6l269 -270l516 516
q6 6 14.5 6t14.5 -6t6 -14.5t-6 -14.5l-530 -530q-6 -6 -14.5 -6z" />
    <glyph glyph-name="huojian" unicode="&#xe64c;" 
d="M678 686l-276 -276h-166l-166 -220q4 1 10.5 2.5t27 6t40.5 8.5t48 8t52.5 5.5t51.5 0.5t48 -5l-278 -358l364 283q43 -97 -20 -254l-12 -29l220 166v166l276 276l56 276z" />
    <glyph glyph-name="moshisaomiaoneicezhong" unicode="&#xe60f;" 
d="M512 832q-122 0 -225 -60t-163 -163t-60 -225t60 -225t163 -163t225 -60t225 60t163 163t60 225t-60 225t-163 163t-225 60zM512 0q-159 0 -271.5 112.5t-112.5 271.5t112.5 271.5t271.5 112.5t271.5 -112.5t112.5 -271.5t-112.5 -271.5t-271.5 -112.5zM652 292l-1 1z
M563 691q-1 1 -4.5 1t-4.5 1l12 6q-3 0 -7 1t-7 1l-2 -2q-5 -4 -27 -13q2 0 13 -2t18 -0.5t9 7.5zM377 656q13 1 26 0l8 -2t9 -1t2.5 4.5t1.5 4.5q-1 0 -3.5 0.5t-3.5 0.5q2 3 4.5 3.5t4 0t5.5 -2.5t5 -3q-8 -5 -3 -9q3 -3 8 2q6 8 -10 18q11 15 21 0q1 5 5 5t8 -1v2
q-2 -1 -4.5 -0.5t-3.5 0.5q2 4 3 7.5t2 5t5 3.5q3 1 10 1t12.5 1t6.5 4q-4 -1 -13 -2t-16.5 -3t-12.5 -5q-2 0 -6 -3t-5.5 -3.5t-5.5 1.5q-4 3 0 9q-25 -6 -46 -14q1 -1 1 -2q4 -4 16 -7q-1 -11 -19 -9q-2 0 -5.5 0.5t-6 1t-5 0t-5 -2t-5.5 -3.5q6 -5 9.5 -6.5t5.5 4.5z
M533 228q-5 5 -19 25l-9 15q-4 6 -1.5 7.5t2.5 3.5v9.5t2 9.5q1 3 5.5 9t6.5 10q3 14 -7 17q-1 1 -5 0t-6 -1q-6 1 -15 8q-3 2 -7 8t-7 8t-8 2.5t-7 0.5q-3 1 -7 5.5t-6 5.5q-3 3 -9 1t-9 -1q-4 0 -12.5 5t-9.5 5q-18 9 -23 24q-2 4 -4.5 7.5t-6.5 8t-6 7.5q-2 2 -5 6
l-4.5 6t-4.5 4t-7 3l2 -6l2 -4q1 -3 14 -20q5 -8 3.5 -9t-6.5 6q-21 27 -24 33q-1 1 -2.5 5t-4.5 7q-2 2 -6.5 4.5t-6.5 4.5q-19 17 -17 51q0 3 1 9t1 9q-1 7 -7 13l-4 7q-7 13 -12 16q-1 1 -5.5 5t-7.5 6q-71 -88 -71 -200q0 -87 42.5 -161t116 -117.5t159.5 -45.5
q8 0 26 1q0 2 -1 3.5t-5 1.5q1 3 4.5 7t4.5 7v2.5t1 2.5q1 6 0 13q0 11 -1 11.5t2.5 9.5t3.5 12q3 8 4.5 26t2.5 22q4 20 1 30q-2 5 -11.5 12zM794 329q-2 4 -2.5 7.5t0.5 9t1 8.5q0 2 -1 12t1 12q0 2 2.5 3.5t2.5 2.5q1 2 2.5 6t3.5 7t6.5 5.5t6.5 4.5t7 12q2 3 9 11l-2 14
q-2 -1 -5 -1q-4 0 -9 5q-6 4 -8 9q-1 1 -1 11q0 1 -0.5 3t-0.5 4t1 3t3 2q1 5 2 6q1 2 4 3q-24 68 -73 117q-17 0 -27 -8q-9 -7 -12 -8h-7t-8 -1q-6 -3 -14.5 -21t-20.5 -15q-11 3 -23 23q-1 1 -4 5t-3.5 5t-1.5 5t2 7h-3h-3h-2q2 4 9 6.5t8 4.5q1 3 0.5 4.5t-3.5 3t-5.5 2
t-6 1.5t-4.5 1q2 4 7.5 1.5t7.5 -2.5q8 2 -4 10q-1 0 -2 1l-1 -1q-19 -4 -9 6q-24 14 -44 28q-1 -5 3.5 -8.5t13.5 -7.5t10 -4q0 -4 -4.5 -7t-8.5 -2q-1 0 -3.5 4.5t-6.5 4.5q-3 -7 4.5 -10.5t8.5 -6.5q1 -4 -1.5 -5t-5.5 0q-2 1 -3 1l-1 1q-5 4 -5 0q-1 -3 4 -4.5t5 -4.5
q-10 0 -25 10q-10 6 -30 6q1 1 6 3t7 3q8 8 8 10q3 2 1 4.5l-2 2.5l-5 3q-16 12 -19 12q-9 2 -12.5 -1t-3 -8t-2 -10t-8.5 -6q-13 2 -16 -1q0 -1 -1 -5t-3 -6t-7 -4.5l-7 -3.5q-13 -8 -17 -15q-2 -6 -2 -9.5t5.5 -7.5t10 -5.5t11 -4t9.5 -3.5q1 0 11.5 -3.5t12.5 -6.5
q2 -2 1 -7.5t4 -6.5q2 -2 5.5 -1.5t4.5 2.5q4 0 1 4t-3 5q0 5 -0.5 6t2 1.5t4.5 1.5q6 5 6.5 8t-2.5 11q-7 20 -3 23q5 2 8.5 1.5t10 -2.5t8.5 -2t4.5 -2.5t5 -6t3.5 -4.5q7 -7 10 -6q4 0 5.5 4t2.5 4q7 4 9 2t5 -10q1 -2 2 -3q4 -9 13 -17q1 0 5.5 -3.5t7.5 -7t2 -6.5
t-20 -10q-8 -3 -17.5 -1t-18 -1t-9.5 -14q1 1 8 5t10.5 5.5t7.5 -1.5q2 -1 0.5 -4.5t-1.5 -4.5q3 -8 16 -5v0q1 1 3 2q5 2 9 9q0 1 2.5 5.5t3.5 4.5q6 3 6.5 3t5.5 -6l9 -14l-1 -1q-21 4 -34 -5q-3 -1 -9 -5.5t-10 -5.5l-12 -1v1q1 1 6 3.5t6 4.5q-2 2 -5.5 0.5t-5 -2t-5 -3
t-5.5 -3.5q-3 -2 -7.5 -7t-6.5 -7q-1 -1 -4.5 -2.5t-4.5 -3.5q-1 -1 -2.5 -5t-2.5 -5t-3.5 -1.5t-3.5 -1.5q-2 -2 -0.5 -5.5t0.5 -4.5q-1 -3 -7.5 -8l-6.5 -5v0q-8 -7 -9 -9q0 -2 1.5 -8t2 -10.5t0.5 -5.5q-2 -9 -11 6q-2 3 -3 4q-3 6 -9 7.5t-11 1t-13 -2t-11 -2.5
q-14 -1 -23 -15t-1 -27q8 -14 24 -11q4 1 10 8t10 7q7 0 7.5 -4t-3.5 -10t-5 -7q-1 -5 6 -7q1 0 2 -1q1 0 6.5 0.5t5.5 -0.5q1 -1 1.5 -3.5t1.5 -4t2 -0.5q-4 -3 -3.5 -10.5t5.5 -10.5q4 -2 10.5 -2h11.5q7 -1 7.5 -1t3.5 3t7 6q3 4 8.5 1.5t6.5 -2.5t4.5 2.5t7.5 1.5
q2 0 6 -2.5t7 -2.5h3.5h3.5q9 0 28 -14q2 -1 21 -7q5 -1 11 -7t6 -11q0 -1 -1.5 -3t-3 -4.5t-2.5 -4.5q1 0 4 0.5t7 1t5 0.5q-6 -7 -8 -5q1 -2 6 -5q1 5 3.5 6.5t4 1t5 -2.5t5.5 -3q3 -1 6.5 -2t8 -1.5t6.5 -1.5q20 -5 24 -10q7 -8 -3 -21q-1 -2 -7.5 -8.5t-8.5 -11.5
q-1 -3 -1 -11t-1 -11q-1 -5 -2 -6.5t-3.5 -3t-5.5 -3.5q-2 -3 -2.5 -5t-5.5 -3q-2 -2 -6.5 -3t-7.5 -2.5t-5 -5.5v1q-2 -2 -5 -12q-1 -3 -10 -14q-1 0 -5.5 -6t-8.5 -11t-4 -4q-1 1 -7.5 0t-6.5 1q1 -2 3 -3q-1 -13 -7 -17t-19 -4q0 -3 -1.5 -5t-4.5 -3t-4 -3
q-1 -1 -2.5 -6.5t-2.5 -6.5l-2 -3t-3.5 -5.5t-1.5 -3.5t3 -5q90 18 158.5 81t95.5 151q-8 3 -14 9q-11 8 -19 19zM515 457l2 2q-1 0 -2 -2zM600 526h-1h1z" />
    <glyph glyph-name="gongjuxiang" unicode="&#xe606;" 
d="M899 -5h-795q-27 0 -46.5 19.5t-19.5 46.5v555q0 27 19.5 46t46.5 19h795q27 0 46 -19t19 -46v-555q0 -27 -19 -46.5t-46 -19.5v0zM104 640q-10 0 -17.5 -7t-7.5 -17v-555q0 -10 7.5 -17.5t17.5 -7.5h795q10 0 17 7.5t7 17.5v555q0 10 -7 17t-17 7h-795v0zM664 644
q-8 0 -14 6t-6 15v101q0 10 -7 17t-18 7h-236q-10 0 -17.5 -7t-7.5 -17v-101q0 -9 -5.5 -15t-14 -6t-14.5 6t-6 15v101q0 27 19 46t46 19h236q27 0 46.5 -19t19.5 -46v-101q0 -9 -6 -15t-15 -6v0zM413 374h-337q-9 0 -15 6t-6 14.5t6 14.5t15 6h337q9 0 15 -6t6 -14.5
t-6 -14.5t-15 -6v0zM913 374h-338q-8 0 -14 6t-6 14.5t6 14.5t14 6h338q8 0 14 -6t6 -14.5t-6 -14.5t-14 -6v0zM558 262h-113q-8 0 -14 6t-6 14v169q0 8 6 14t14 6h113q8 0 14 -6t6 -14v-169q0 -8 -6 -14t-14 -6v0zM465 302h72v129h-72v-129v0z" />
    <glyph glyph-name="qinglihuancun" unicode="&#xe63f;" 
d="M863 559h-320l112 99l-19 17l-126 -111l-126 111l-19 -17l112 -99h-320q-28 0 -47.5 -17.5t-19.5 -41.5v-382q0 -25 19.5 -42.5t47.5 -17.5h204v-95h-122v-24h543v24h-123v95h204q28 0 48 17.5t20 42.5v382q0 24 -20 41.5t-48 17.5zM632 -37h-244v95h244v-95zM904 118
q0 -15 -12 -25.5t-29 -10.5h-706q-16 0 -28 10.5t-12 25.5v382q0 15 12 25.5t28 10.5h706q17 0 29 -10.5t12 -25.5v-382z" />
    <glyph glyph-name="qingli" unicode="&#xe639;" 
d="M840 269h-14v-213q0 -28 3.5 -57t7.5 -44l3 -15q0 -11 -8 -19.5t-20 -8.5h-600q-12 0 -20 8.5t-8 19.5q14 51 14 113v216h-14q-12 0 -20 8t-8 20v139q0 12 8 20t20 8h237v154q0 29 20.5 49.5t49.5 20.5h42q29 0 49.5 -20.5t20.5 -49.5v-154h237q12 0 20 -8t8 -20v-139
q0 -12 -8 -20t-20 -8v0zM358 -60v185q0 5 3.5 8t7.5 3h7q4 0 7 -3t3 -8v-185h119v185q0 5 3 8t7 3h7q5 0 8 -3t3 -8v-185h112v185q0 5 3 8t7 3h7q4 0 7.5 -3t3.5 -8v-185h139q-14 51 -14 113v216h-572v-216q0 -62 -14 -113v0h146v0zM840 422q0 6 -4 10t-10 4h-251v175
q0 20 -14.5 34.5t-34.5 14.5h-28q-20 0 -34.5 -14.5t-14.5 -34.5v-175h-251q-6 0 -10 -4t-4 -10v-112q0 -5 4 -9t10 -4h28h572h28q6 0 10 4t4 9v112v0zM840 422zM840 269h-14v-213q0 -28 3.5 -57t7.5 -44l3 -15q0 -11 -8 -19.5t-20 -8.5h-600q-12 0 -20 8.5t-8 19.5
q14 51 14 113v216h-14q-12 0 -20 8t-8 20v139q0 12 8 20t20 8h237v154q0 29 20.5 49.5t49.5 20.5h42q29 0 49.5 -20.5t20.5 -49.5v-154h237q12 0 20 -8t8 -20v-139q0 -12 -8 -20t-20 -8v0zM358 -60v185q0 5 3.5 8t7.5 3h7q4 0 7 -3t3 -8v-185h119v185q0 5 3 8t7 3h7
q5 0 8 -3t3 -8v-185h112v185q0 5 3 8t7 3h7q4 0 7.5 -3t3.5 -8v-185h139q-14 51 -14 113v216h-572v-216q0 -62 -14 -113v0h146v0zM840 422q0 6 -4 10t-10 4h-251v175q0 20 -14.5 34.5t-34.5 14.5h-28q-20 0 -34.5 -14.5t-14.5 -34.5v-175h-251q-6 0 -10 -4t-4 -10v-112
q0 -5 4 -9t10 -4h28h572h28q6 0 10 4t4 9v112v0zM840 422z" />
    <glyph glyph-name="collapse" unicode="&#xe60d;" 
d="M449 378v0l44 -44h1l268 -268l44 44l-268 268l268 268l-44 45zM196 378v0l45 -44v0l268 -268l45 44l-269 268l269 268l-45 45z" />
    <glyph glyph-name="diannao" unicode="&#xe60e;" 
d="M952 110h-880q-28 0 -48 20t-20 48v578q0 28 20 48.5t48 20.5h880q29 0 49 -20.5t20 -48.5v-578q0 -28 -20 -48t-49 -20zM72 784q-11 0 -19 -8.5t-8 -19.5v-578q0 -11 8 -19t19 -8h880q12 0 20 8t8 19v578q0 11 -8 19.5t-20 8.5h-880zM461 127h103v-202h-103v202z
M696 -94h-367v22q0 26 18 43.5t43 17.5h245q25 0 43 -17.5t18 -43.5v-22zM27 279h968v-41h-968v41zM513 192zM485 192.5q0 11.5 8 20t20 8.5t20.5 -8.5t8.5 -20t-8.5 -20t-20.5 -8.5t-20 8.5t-8 20z" />
    <glyph glyph-name="bofangqizanting" unicode="&#xe618;" 
d="M836 -128h-34q-21 0 -36 15t-15 36v922q0 21 15 36t36 15h34q21 0 36 -15t15 -36v-922q0 -21 -15 -36t-36 -15zM222 -128h-34q-21 0 -36 15t-15 36v922q0 21 15 36t36 15h34q21 0 36 -15t15 -36v-922q0 -21 -15 -36t-36 -15z" />
    <glyph glyph-name="cloudok" unicode="&#xe619;" 
d="M845 542q-26 116 -119 192.5t-214 76.5q-92 0 -171 -46t-124.5 -124.5t-45.5 -171.5v-4q-75 -16 -123 -74.5t-48 -134.5q0 -90 62 -151.5t151 -61.5v85q-53 0 -90.5 38t-37.5 90q0 54 37 91t91 37h43v85q0 106 75 181t181 75q97 0 169.5 -63t82.5 -159l4 -34l30 -4
q61 -13 101 -59.5t40 -106.5q0 -71 -50.5 -121t-120.5 -50v-85q106 0 181 75t75 181q0 83 -49.5 150t-129.5 93zM704 341l-230 -268l-137 102l-51 -68l200 -154l282 329z" />
    <glyph glyph-name="bug" unicode="&#xe65a;" 
d="M969 263.5q0 -14.5 -11 -25.5t-25 -11h-128q0 -98 -39 -166l119 -119q11 -11 11 -26t-11 -26q-10 -11 -25.5 -11t-25.5 11l-113 113q-3 -3 -9 -7.5t-24 -16.5t-37 -21t-47 -16.5t-55 -7.5v512h-74v-512q-29 0 -57.5 8t-49.5 19t-38 22t-25 19l-8 8l-105 -119
q-11 -12 -27 -12q-14 0 -25 10t-12 25t9 27l116 129q-34 65 -34 157h-128q-14 0 -25 11t-11 25.5t11 25.5t25 11h128v168l-98 99q-11 11 -11 25.5t10.5 25.5t25.5 11t26 -11l99 -99h482l99 99q11 11 26 11t25.5 -11t10.5 -25.5t-11 -25.5l-98 -99v-168h128q14 0 25 -11
t11 -25.5zM695 593h-366q0 76 53.5 129t129.5 53t129.5 -53t53.5 -129z" />
    <glyph glyph-name="xiaoyuanheibanbao" unicode="&#xe631;" 
d="M912 108h-800q-13 0 -22.5 9.5t-9.5 22.5v512q0 13 9.5 22.5t22.5 9.5h800q13 0 22.5 -9.5t9.5 -22.5v-512q0 -13 -9.5 -22.5t-22.5 -9.5v0zM896 636h-768v-480h768v480v0zM288 76l-54 -144h-61l51 144h64v0zM544 -36h-64v112h64v-112v0zM851 -68h-61l-54 144h64l51 -144
v0z" />
    <glyph glyph-name="ku" unicode="&#xe610;" 
d="M512 834q-186 0 -318 -132t-132 -318t132 -318t318 -132t318 132t132 318t-132 318t-318 132zM512 -17q-109 0 -201.5 53.5t-146 146t-53.5 201.5t53.5 201.5t146 146t201.5 53.5t201.5 -53.5t146 -146t53.5 -201.5t-53.5 -201.5t-146 -146t-201.5 -53.5zM622 248
q-55 21 -114.5 20t-114.5 -23q-63 -26 -98 -62q-7 -7 -7 -16.5t6.5 -16t16.5 -6.5t16 7q3 2 7 6q1 1 3.5 3t4.5 3l1 1l1 1v0q4 3 6 4q14 11 31 20q10 5 19 10q1 0 3 1t3 1v0l1 1q8 3 13 5q54 19 111 15q5 -1 15 -2h2h1t3.5 -0.5t3.5 -0.5q14 -3 28 -7q10 -2 24 -7
q4 -2 11 -5h2q1 -1 7 -4q27 -12 54 -32v-1q1 0 4 -2l6 -6q1 0 2.5 -1.5l2.5 -2.5q7 -7 16.5 -7t16 6.5t6.5 16t-7 16.5q-39 39 -107 65zM682 163h2h-2zM343.5 460q12.5 13 12.5 31t-12.5 30.5t-30.5 12.5t-31 -13q-13 -12 -13 -30t13 -31t31 -13t30.5 13zM711 534
q-18 0 -30 -13q-13 -12 -13 -30t12.5 -31t30.5 -13t31 13t13 31t-13 30.5t-31 12.5z" />
    <glyph glyph-name="guanli" unicode="&#xe63a;" 
d="M788 423h-184q-22 0 -37.5 15.5t-15.5 37.5v184q0 98 69.5 167t167 69t167 -69t69.5 -167t-69.5 -167.5t-166.5 -69.5zM926.5 798.5q-57.5 57.5 -139 57.5t-139 -57.5t-57.5 -138.5v-184q0 -5 4 -9t9 -4h184q81 0 138.5 57.5t57.5 139t-57.5 139zM236 -128
q-98 0 -167 69.5t-69 167t69.5 167t166.5 69.5h184q22 0 37.5 -15.5t15.5 -37.5v-184q0 -97 -69.5 -166.5t-167.5 -69.5zM433 292q0 5 -4 9t-9 4h-184q-81 0 -138.5 -57.5t-57.5 -139t57.5 -139t139 -57.5t139 57.5t57.5 138.5v184zM420 423h-184q-98 0 -167 69.5t-69 167.5
t69.5 167t167 69t167 -69t69.5 -167v-184q0 -22 -15.5 -37.5t-37.5 -15.5zM433 660q0 81 -57.5 138.5t-139 57.5t-139 -57.5t-57.5 -139t57.5 -139t138.5 -57.5h184q5 0 9 4t4 9v184zM604 345h184q97 0 166.5 -69.5t69.5 -167t-69.5 -167t-167 -69.5t-167 69.5t-69.5 166.5
v184q0 22 15.5 37.5t37.5 15.5zM591 108q0 -81 57.5 -138.5t139 -57.5t139 57.5t57.5 139t-57.5 139t-138.5 57.5h-184q-5 0 -9 -4t-4 -9v-184z" />
    <glyph glyph-name="xiaolian" unicode="&#xe611;" horiz-adv-x="1031" 
d="M689 423q26 0 44.5 18.5t18.5 44.5t-18.5 44.5t-44.5 18.5t-44.5 -18.5t-18.5 -44.5t18.5 -44.5t44.5 -18.5zM880 746q-73 73 -167 111.5t-197.5 38.5t-197.5 -38.5t-167 -111t-112 -166t-39 -196.5t39 -196.5t112 -166t167 -111t197 -38.5t197.5 38.5t167.5 111.5
q98 98 133.5 230t0 264t-133.5 230zM832 69q-63 -63 -145 -96.5t-172 -33.5t-171.5 33.5t-145 96.5t-97.5 144.5t-34 170.5t34 170.5t97.5 144.5t145 96.5t171.5 33.5t172 -33.5t145 -96.5q86 -86 116.5 -200.5t0 -229t-116.5 -200.5zM365.5 423q26.5 0 45 18.5t18.5 44.5
t-18.5 44.5t-45 18.5t-45 -18.5t-18.5 -44.5t18.5 -44.5t45 -18.5zM718 244q-3 -4 -9 -10.5t-26.5 -23t-43 -29t-56.5 -23t-68 -10.5t-65.5 10t-52 24t-36 28t-22.5 24l-7 10q-19 0 -29.5 -12t-11.5 -24l-1 -12q3 -4 7.5 -11.5t23 -27t42 -34t64.5 -27t88.5 -12.5t90.5 12
t70.5 28t48.5 33t30 27.5t9 11.5q0 22 -11.5 34t-22.5 13z" />
    <glyph glyph-name="saomiao" unicode="&#xe612;" 
d="M518 389l328 -312q-64 -68 -148 -104.5t-174 -38.5t-175 30t-153 97l312 328q2 -2 5 -2t5 2zM62 389h900v-10h-900v10zM507 834h10v-900h-10v900zM512 -52q89 0 169.5 34.5t139 93t93 139t34.5 169.5t-34.5 169.5t-93 139t-139 93t-169.5 34.5t-169.5 -34.5t-139 -93
t-93 -139t-34.5 -169.5t34.5 -169.5t93 -139t139 -93t169.5 -34.5zM514.5 723q92.5 0 171.5 -45.5t124.5 -124.5t45.5 -171.5t-45.5 -171.5t-124.5 -124.5t-171.5 -45.5t-171.5 45.5t-124.5 124.5t-45.5 171.5t45.5 171.5t124.5 124.5t171.5 45.5zM514 229q63 0 108 45
t45 108t-45 107.5t-108 44.5t-107.5 -44.5t-44.5 -107.5t44.5 -108t107.5 -45zM512 -73q-93 0 -177.5 36t-146 97.5t-97.5 146t-36 177.5t36 177.5t97.5 146t146 97.5t177.5 36t177.5 -36t146 -97.5t97.5 -146t36 -177.5t-36 -177.5t-97.5 -146t-146 -97.5t-177.5 -36v0v0z
M514 703q-87 0 -161 -43t-117 -117t-43 -161.5t43 -161.5t117 -117t161.5 -43t161.5 43t117 117t43 161.5t-43 161.5t-117 117t-162 43v0v0zM514 209q-71 0 -121.5 50.5t-50.5 122t50.5 122t122 50.5t122 -50.5t50.5 -122t-50.5 -122t-122.5 -50.5v0v0zM851 293
q25 0 42 -17.5t17 -42t-17 -42t-41.5 -17.5t-42 17.5t-17.5 42t17.5 42t41.5 17.5v0zM374 720q24 0 41.5 -17.5t17.5 -42t-17.5 -42t-42 -17.5t-42 17.5t-17.5 42t17.5 42t42.5 17.5v0z" />
    <glyph glyph-name="yuan" unicode="&#xe7bc;" horiz-adv-x="1025" 
d="M997 795q-4 -132 -56 -265q-61 -159 -178 -265q-9 -9 -7 -21q1 -14 3.5 -41t3.5 -41q11 -98 -67 -154q-43 -31 -170 -114q-27 -17 -54 -4t-30 45q-5 57 -11 147q-2 19 -5 22t-20 6q-97 13 -147 92q-24 39 -29 92q-1 12 -14 13q-92 5 -153 9q-32 3 -45 30.5t4 55.5l49 77
q7 11 25.5 40t28.5 44q50 79 139 79q14 0 104 -9q10 -1 15 5q113 126 291 190q95 34 195 44q60 7 101 -1q14 -3 17 -6t6 -16q5 -33 4 -54v0zM804 569q0 46 -32 79.5t-77 34.5q-47 0 -81 -31.5t-35 -82.5q-1 -44 32.5 -78t78.5 -34q47 0 80 32.5t34 79.5v0zM804 569zM141 225
q21 0 29 -22q32 -91 116 -138q18 -9 39 -17q18 -6 21.5 -21t-10 -28.5t-40 -40.5t-39.5 -40q-15 -14 -31 -8q-18 6 -19 27q-1 4 -1 13v11q0 12 -2 13.5t-12 -2.5l-45 -15l-45 -15q-16 -5 -26 1q-20 12 -13 36l17.5 52.5t13.5 39.5q3 10 2 11.5t-12 1.5l-10.5 0.5t-15.5 0.5
q-20 1 -26 19q-7 16 6 30q25 24 84 83q9 9 19 8v0zM141 225z" />
    <glyph glyph-name="huojian1" unicode="&#xe63b;" 
d="M956 759q-3 -119 -50 -239q-56 -143 -161 -239q-8 -8 -7 -19q1 -12 3.5 -37t3.5 -37q9 -88 -61 -139q-39 -27 -154 -102q-24 -16 -49 -4.5t-27 40.5q-5 52 -11 133q-1 17 -3.5 20t-18.5 5q-88 12 -133 84q-22 35 -26 82q-1 11 -13 12q-84 4 -139 8q-29 3 -41 27.5t4 49.5
q0 1 45 70q6 10 22.5 36t25.5 40q45 71 126 71q13 0 94 -8q9 -1 14 4q102 114 264 172q86 31 177 40q54 5 91 -1q13 -3 15.5 -5.5t4.5 -14.5q5 -30 4 -49zM781 556q1 40 -28 70.5t-70 31.5q-43 0 -73.5 -28.5t-31.5 -74.5q-1 -39 29.5 -69.5t70.5 -31.5q43 0 73 29.5
t30 72.5zM181 245q19 0 26 -20q29 -82 105 -124q16 -9 36 -15q16 -6 19 -19.5t-9 -25.5t-36 -36.5t-36 -36.5q-13 -13 -28 -7q-17 6 -18 24v12v10q0 11 -2 12t-11 -2q-14 -5 -41 -13.5t-40 -13.5q-15 -5 -24 1q-19 10 -11 32q5 16 15.5 47t11.5 36q3 9 2 10.5t-11 1.5l-24 1
q-17 0 -23 16t6 28q22 22 76 75q8 8 17 7v0z" />
    <glyph glyph-name="huojian2" unicode="&#xe695;" 
d="M942 747q-4 -113 -48 -228q-53 -137 -154 -230q-7 -7 -6 -18t3 -35t4 -36q8 -84 -59 -132q-36 -27 -146 -98q-24 -16 -47 -4.5t-26 39.5q-5 49 -10 127q-1 16 -3.5 19t-17.5 5q-84 11 -127 80q-21 33 -25 79q-1 10 -12 11q-80 4 -132 8q-28 2 -39.5 25.5t3.5 48.5l43 67
q6 9 21.5 34t24.5 38q43 68 120 68q13 1 90 -8q8 -1 13 5q97 108 251 164q82 29 169 38q52 6 87 -1q12 -2 14.5 -4.5t4.5 -14.5q5 -29 4 -47v0zM804 552q1 51 -35 88.5t-86 38.5q-53 1 -91 -34.5t-40 -92.5q-1 -49 37 -87t87 -38q53 -1 90.5 36t37.5 89v0zM215 267
q18 0 25 -19q28 -78 100 -119q16 -8 34 -14q16 -6 19 -19t-9 -24.5t-35 -34.5t-34 -35q-13 -12 -27 -7q-16 6 -16 23q-1 4 -1 11.5v10.5q0 9 -1.5 10.5t-10.5 -1.5q-13 -5 -39 -13.5t-39 -12.5t-22 1q-18 10 -11 31q5 15 15 44.5t11 34.5q3 8 2 10t-10 2h-23q-17 1 -23 16
q-5 15 6 26q22 22 72 73q8 7 17 6v0zM215 267z" />
    <glyph glyph-name="ture" unicode="&#xe613;" 
d="M909 652l-477 -479l-317 320l-31 -29l319 -320l29 -28l29 28l479 480z" />
    <glyph glyph-name="shifoushangxian" unicode="&#xe614;" 
d="M356.5 532q125.5 0 214.5 -89t89 -214.5t-89 -214.5t-214.5 -89t-215 89t-89.5 214q0 126 89.5 215t215 89zM356 568q-92 0 -170 -45.5t-123.5 -123.5t-45.5 -170t45.5 -170.5t123.5 -124t170 -45.5t170.5 45.5t124 124t45.5 170.5t-45.5 170t-124 123.5t-170.5 45.5v0z
M314 97q-8 -7 -16 -7t-16 7l-100 100l32 32l84 -84l222 223l32 -32z" />
    <glyph glyph-name="loudongxiufu" unicode="&#xe615;" 
d="M713 695q0 84 -59 142.5t-142 58.5t-141.5 -58.5t-58.5 -142.5v0h401v0zM565 350q73 64 170 64q54 0 102 -21v160l112 106v1q15 14 15 33.5t-13 33.5q-14 14 -33.5 14.5t-33.5 -13.5l-114 -108h-516l-114 108q-14 14 -33.5 13.5t-33.5 -14.5q-13 -14 -13 -33.5t15 -33.5
v-1l115 -109v-179h-143v0q-19 0 -33 -14t-14 -33q0 -20 14 -34t33 -14h1h142v-78q0 -57 30 -109l-124 -119l-1 -1q-14 -13 -14 -33t13 -34q14 -14 33.5 -14t33.5 13l121 116q76 -62 183 -75v601h100v-193zM1018 -71l-99 99q44 59 42 136q-2 89 -65 152.5t-151 66.5
q-98 3 -166.5 -66t-64.5 -166q3 -89 66.5 -152t151.5 -65q75 -2 137 43l99 -100q13 -12 25 0l26 26q12 13 -1 26zM737 -2q-66 1 -113 48t-47 113q0 69 50.5 117t121.5 43q59 -4 101.5 -47t46.5 -102q5 -70 -42.5 -121t-117.5 -51z" />
    <glyph glyph-name="jiangjia" unicode="&#xe61b;" 
d="M659 186h224q6 0 15.5 5t14.5 10v0q17 17 16 29v194q0 13 -9 22t-21.5 9t-21.5 -9t-9 -22v-124l-280 274q-9 8 -21 8h-4q-10 -1 -17 -7l-216 -179l-183 178q-8 8 -21.5 7.5t-21.5 -8.5q-9 -9 -9 -21.5t9 -21.5l202 -196q7 -7 15 -8q4 -1 7 -1q12 0 20 7l217 180l270 -265
h-176q-12 0 -21 -9t-9 -21.5t9 -21.5t21 -9v0z" />
    <glyph glyph-name="shoujijiasu" unicode="&#xe607;" 
d="M903 137v151q0 13 -24 30q-13 8 -56 48.5t-43 48.5v165q0 32 -27.5 76t-67 83.5t-79 74t-66.5 55.5l-28 20q-11 -8 -29 -21.5t-64 -53t-81.5 -76t-64.5 -81.5t-29 -77v-165q0 -8 -43 -48.5t-56 -48.5q-24 -17 -24 -30v-151v-3t1 -7.5l2 -9t5 -7.5t10 -3q8 0 29 8.5
t45.5 20.5t29.5 14q15 6 45 12.5t53 6.5q9 0 15 -2q13 -1 45 -1q55 0 111 3q65 -3 128 -3q36 0 48 1q7 2 15 2q32 0 77 -19q5 -2 30 -14t46 -20.5t29 -8.5q18 0 18 30zM841 190q-6 3 -9 4q-21 10 -28 13q-56 23 -101 23q-13 0 -24 -1q-6 -2 -39 -2q-67 0 -125 4h-3h-3
q-97 -4 -108 -4q-29 0 -35 2q-11 1 -25 1q-29 0 -65 -7t-56 -16q-6 -2 -28 -13q-1 0 -9 -4v79q13 9 28.5 22t39.5 35.5t39.5 46.5t15.5 42v165q0 32 62 99.5t144 132.5q83 -65 144.5 -132.5t61.5 -99.5v-165q0 -18 15.5 -42t40 -46.5t39.5 -35.5t28 -22v-79v0zM512 642
q-51 0 -87.5 -36.5t-36.5 -87.5t36.5 -87.5t87.5 -36.5t87.5 36.5t36.5 87.5t-36.5 87.5t-87.5 36.5zM512 456q-26 0 -44 18t-18 44t18 44t44 18t44 -18t18 -44t-18 -44t-44 -18zM337 106q-13 0 -22 -9t-9 -22v-83q0 -13 9 -22t22 -9t22 9t9 22v83q0 13 -9 22t-22 9z
M687 106q-13 0 -22 -9t-9 -22v-83q0 -13 9 -22t22 -9t22 9t9 22v83q0 13 -9 22t-22 9zM512 106q-13 0 -22 -9t-9 -22v-165q0 -13 9 -22t22 -9t22 9t9 22v165q0 13 -9 22t-22 9z" />
    <glyph glyph-name="ruanjianku" unicode="&#xe63c;" 
d="M761 705q-5 2 -18 2q11 0 18 -2v0zM676 607q-11 -2 -18.5 -9.5t-7.5 -18.5v-2q2 -11 9.5 -18t18.5 -7q11 1 18 8.5t7 18.5v2q-1 11 -8.5 18.5t-18.5 7.5v0zM203 556h367v49h-367v-49v0zM922 798q-27 22 -66 22h-571q-41 0 -65 -22q-29 -26 -29 -60v-29h-19q-41 0 -65 -22
q-31 -28 -31 -64v-593q0 -37 29 -60q27 -22 66 -22h569q41 0 65 22q31 28 31 60v29h17q41 0 65 22q30 26 30 60v595q5 34 -26 62v0zM789 512h-664v111q0 14 14 23.5t33 9.5h17h49h504q19 0 33 -9.5t14 -23.5v-111v0zM902 145q0 -4 -5 -12.5t-13 -13.5q-15 -10 -31 -10h-17
v514q0 13 -1 20q0 2 -2 4q0 2 -2 3q0 2 -2 4q0 1 -1 2t-1 2q-1 1 -1.5 2.5t-1.5 2.5t-3 4t-3 4t-3.5 4t-3.5 5q-3 3 -7 5l-4 4l-2 2q-1 0 -2 0.5t-2 0.5q-1 1 -4.5 3.5t-4.5 2.5h1q-2 2 -4 2q1 0 2 -1l-2 1q-1 0 -2 1t-2 1t-2.5 1t-2.5 1h-2q-2 0 -4.5 0.5t-4.5 0.5h-2h-4
q-7 2 -20 2v0v0h-498v29q0 8 2 11q1 4 7 9q15 15 38 15h570q19 0 33 -9.5t14 -23.5v-593v0z" />
    <glyph glyph-name="zuidi" unicode="&#xe61c;" 
d="M866 421h-223v410h-262v-410h-223l354 -335zM866 11h-708v-74h708v74z" />
    <glyph glyph-name="zuigao" unicode="&#xe61d;" 
d="M512 682l-354 -335h224v-410h260v410h224zM866 831h-708v-74h708v74z" />
    <glyph glyph-name="haomengappok65" unicode="&#xe61e;" 
d="M511.5 896q-111.5 0 -190 -79t-78.5 -190q0 -58 24 -111l117 -541q0 -5 5 -19l1 1v0q25 -85 117 -85q97 0 119 85h1l2 7l0.5 1t0.5 2l143 598q8 32 8 62q0 111 -79 190t-190.5 79zM554 749l-11 -548h-80l-11 548h102zM550.5 -28.5q-19.5 -18.5 -46 -18.5t-46 18.5
t-19.5 45.5t19.5 45.5t46 18.5t46 -18.5t19.5 -45.5t-19.5 -45.5z" />
    <glyph glyph-name="ico-user-ok" unicode="&#xe61f;" 
d="M267 -57h-150q7 103 62.5 189.5t146 136t194.5 49.5q74 0 143 -26l45 46q-5 2 -7 3q-20 8 -40 15q33 18 59 45q83 83 83 200t-82.5 200t-200 83t-200.5 -83t-83 -200t83 -200q27 -27 60 -45q-21 -7 -40 -15q-84 -35 -148 -99.5t-99 -147.5q-37 -86 -37 -181
q0 -12 9 -20.5t21 -8.5h181q12 0 21 8.5t9 21t-9 21t-21 8.5zM297 601.5q0 92.5 65.5 158t158 65.5t158 -65.5t65.5 -158t-65.5 -158.5t-158 -66t-158 66t-65.5 158.5zM948 94q-32 75 -87 135l-42 -42q95 -104 105 -244h-150q-12 0 -21 -8.5t-9 -21t9 -21t21 -8.5h181
q12 0 20.5 8.5t8.5 20.5q0 95 -36 181zM843.5 342.5q-8.5 8.5 -21 8.5t-21.5 -8l-281 -282l-124 123q-9 9 -21 9t-21 -8.5t-9 -21t9 -20.5l145 -145q8 -9 20.5 -9t20.5 9l303 303q9 9 9 21t-8.5 20.5z" />
    <glyph glyph-name="shebeidiannao" unicode="&#xe63d;" 
d="M64 233h895q3 -35 -11 -64t-44 -29h-152h-151v-67h46h46q13 0 19 -10t0 -20t-21 -10h-366q-12 0 -17.5 10t0.5 20t21 10h84v67q-48 0 -144.5 -0.5t-143.5 0.5q-21 0 -35.5 17t-19.5 36.5t-6 39.5v0zM64 300h895v406q0 33 -16 54.5t-44 21.5h-742q-93 0 -93 -67v-415z" />
    <glyph glyph-name="xiaoliangzuigao" unicode="&#xe620;" 
d="M942 -64q-7 0 -12.5 5t-5.5 13v665q0 7 5.5 12.5t12.5 5.5t12.5 -5.5t5.5 -12.5v-665q0 -8 -5.5 -13t-12.5 -5zM83 299q-10 0 -16 9q-3 6 -1 13t8 11l804 464h-317q-8 0 -13 5.5t-5 13t5 12.5t13 5h384q13 0 17 -13t-8 -20l-862 -498q-4 -2 -9 -2zM83 -64q-7 0 -12.5 5
t-5.5 13v160q0 7 5.5 12.5t12.5 5.5t12.5 -5.5t5.5 -12.5v-160q0 -8 -5.5 -13t-12.5 -5zM380 -64q-7 0 -12.5 5t-5.5 13v331q0 7 5.5 12.5t12.5 5.5t12.5 -5.5t5.5 -12.5v-331q0 -8 -5.5 -13t-12.5 -5zM653.5 -64q-7.5 0 -13 5t-5.5 13v488q0 8 5.5 13t13 5t12.5 -5t5 -13
v-488q0 -8 -5 -13t-12.5 -5zM480 814q0 -7 -5 -12.5t-12.5 -5.5t-13 5.5t-5.5 13t5.5 12.5t13 5t12.5 -5t5 -13v0z" />
    <glyph glyph-name="qcg-copy" unicode="&#xe621;" horiz-adv-x="1123" 
d="M850 767q-69 62 -156 95.5t-183 33.5q-104 0 -198.5 -40.5t-163 -109t-109 -163.5t-40.5 -199t40.5 -199t109 -163.5t163 -109t198.5 -40.5q158 0 286.5 88t187.5 230v0q-6 24 -23.5 31t-31.5 -9v0q-52 -127 -166 -204t-253 -77q-92 0 -175.5 36t-144 96.5t-96.5 144.5
t-36 176t36 176t96.5 144.5t144 96.5t175.5 36q172 0 300 -114v0q22 -5 33.5 7.5t5.5 36.5v0zM488 131l26 -24l28 23l556 485q12 11 13 27t-9.5 28.5t-27 13.5t-28.5 -9l-529 -462l-201 192q-11 11 -27.5 11t-28 -12t-11 -28.5t12.5 -27.5z" />
    <glyph glyph-name="weibiaoti515" unicode="&#xe617;" 
d="M176 115h678v-83h-678v83zM759 466h-120v269h-272v-269h-149l270 -270z" />
    <glyph glyph-name="weibiaoti516" unicode="&#xe61a;" 
d="M176 735h678v-83h-678v83zM759 301h-120v-269h-272v269h-149l270 270z" />
    <glyph glyph-name="weibiaoti517" unicode="&#xe62f;" 
d="M192 34q-12 0 -20.5 8.5t-8.5 20.5v639q0 12 8.5 20.5t20.5 8.5h640q12 0 20.5 -8.5t8.5 -20.5v-639q0 -12 -8.5 -20.5t-20.5 -8.5h-640z" />
    <glyph glyph-name="weibiaoti518" unicode="&#xe632;" 
d="M305 700q0 12 7 16t17 -3l456 -317q10 -7 10 -17t-10 -16l-456 -318q-10 -7 -17 -3t-7 16v642z" />
    <glyph glyph-name="weibiaoti519" unicode="&#xe633;" 
d="M429 63q0 -12 -9 -21t-20 -9h-114q-12 0 -20.5 9t-8.5 21v639q0 12 8.5 20.5t20.5 8.5h114q11 0 20 -8.5t9 -20.5v-639zM760 63q0 -12 -8.5 -21t-20.5 -9h-114q-12 0 -20.5 9t-8.5 21v639q0 12 8.5 20.5t20.5 8.5h114q12 0 20.5 -8.5t8.5 -20.5v-639z" />
    <glyph glyph-name="weibiaoti534" unicode="&#xe634;" 
d="M288 64q0 -12 -8.5 -20.5t-20.5 -8.5h-71q-12 0 -20.5 8.5t-8.5 20.5v644q0 12 8.5 20.5t20.5 8.5h71q12 0 20.5 -8.5t8.5 -20.5v-644zM392 708q0 12 6.5 15.5t16.5 -3.5l425 -317q10 -7 10 -17.5t-10 -17.5l-425 -316q-10 -8 -16.5 -4.5t-6.5 15.5v645z" />
    <glyph glyph-name="weibiaoti535" unicode="&#xe635;" 
d="M735 62q0 -12 8.5 -20.5t20.5 -8.5h71q12 0 20.5 8.5t8.5 20.5v644q0 12 -8.5 20.5t-20.5 8.5h-71q-12 0 -20.5 -8.5t-8.5 -20.5v-644zM631 706q0 12 -6.5 15.5t-16.5 -3.5l-425 -317q-10 -7 -10 -17t10 -17l425 -317q10 -7 16.5 -3.5t6.5 15.5v644z" />
    <glyph glyph-name="weibiaoti545" unicode="&#xe636;" 
d="M426 564v170l-331 -301l331 -301v182h38t48 -2.5t58 -7.5t61.5 -14.5t66 -23t64 -35.5t62.5 -49t55 -65t46 -84v31q0 29 -7.5 69t-25.5 90t-44.5 99.5t-67.5 96t-90 80.5t-117.5 52.5t-146.5 12.5z" />
    <glyph glyph-name="weibiaoti546" unicode="&#xe637;" 
d="M596 564v170l331 -301l-331 -301v182h-38t-48 -2.5t-58 -7.5t-61.5 -14.5t-66 -23t-64 -35.5t-62.5 -49t-55 -65t-47 -84v31q0 29 8 69t26 90t44 99.5t67 96t90.5 80.5t118 52.5t146.5 12.5z" />
    <glyph glyph-name="jisuanjiruanjian" unicode="&#xe7ab;" 
d="M900 -67h-776q-26 0 -44.5 18.5t-18.5 44.5v776q0 26 18.5 44.5t44.5 18.5h539q10 0 17.5 -7.5t7.5 -18t-7.5 -18t-17.5 -7.5h-539q-5 0 -8.5 -3.5t-3.5 -8.5v-776q0 -5 3.5 -8.5t8.5 -3.5h776q5 0 8.5 3.5t3.5 8.5v561q0 11 7.5 18.5t18 7.5t18 -7.5t7.5 -18.5v-561
q0 -26 -18.5 -44.5t-44.5 -18.5zM280 188h-82v390h120q160 2 158 -120q-4 -114 -135 -120h-61v-150zM280 512v-109h26q84 -9 82 55q0 56 -82 54h-26zM815 466h-80q-2 59 -63 59q-61 -4 -63 -51q0 -38 61 -52q6 -2 10 -2q2 0 11 -2q137 -28 135 -108q-2 -122 -167 -126
q-151 0 -149 128h84q0 -67 65 -71q76 2 78 50q0 40 -73 55q-11 2 -15 4q-129 30 -129 108q7 120 163 128q126 -6 132 -120z" />
    <glyph glyph-name="gouxuan1" unicode="&#xe622;" 
d="M830 700q-87 86 -202.5 117t-231 0t-201.5 -117t-117 -201.5t0 -231t117 -202t201.5 -117t231 0t202 117t117 202t0 231t-116.5 201.5v0zM801 94q-79 -78 -184 -106t-210 0t-183.5 106.5t-106 183.5t0 210t106 183.5t183.5 106t210 0t183.5 -106t106.5 -183.5t0 -210
t-106 -184v0zM728 533l27 -27l-305 -304l-26 26l304 305v0zM477 228l-26 -26l-199 199l27 26l198 -199v0zM477 228z" />
    <glyph glyph-name="laba" unicode="&#xe623;" 
d="M513 823l-220 -220h-156q-30 0 -51.5 -21.5t-21.5 -51.5v-293q0 -30 21.5 -51.5t51.5 -21.5h156l220 -220q30 0 51.5 21.5t21.5 51.5v733q0 30 -21.5 51.5t-51.5 21.5v0zM513 20l-193 212h-183v293h183l193 212v-717v0zM947 351q6 0 9.5 9.5t3.5 23t-3.5 23t-9.5 9.5h-92
q-5 0 -9 -9.5t-4 -23t4 -23t9 -9.5h92v0zM957 767q5 2 3.5 12.5t-8 22t-14.5 17.5t-13 3l-80 -45q-4 -3 -2.5 -13t8 -21.5t14.5 -18t13 -3.5l79 46v0zM957 0q5 -3 3.5 -13t-8 -21.5t-14.5 -17.5t-13 -4l-80 46q-4 3 -2.5 13t8 21.5t14.5 18t13 3.5l79 -46v0zM638 219
q-12 31 12 41q63 28 71 110q5 44 -14 81t-55 53q-13 8 -16.5 20t3.5 24q8 12 20 15.5t24 -3.5q55 -32 83.5 -84t21.5 -113q-5 -51 -34.5 -94t-75.5 -63q-10 -6 -22.5 -2.5t-17.5 15.5v0zM638 219z" />
    <glyph glyph-name="liwu2" unicode="&#xe624;" horiz-adv-x="1141" 
d="M1139 540q0 37 -26.5 63t-63.5 26h-70q48 46 48 111t-46.5 110.5t-111.5 45.5q-109 0 -181 -169q-30 13 -66.5 13t-66.5 -13q-72 169 -181 169q-55 0 -97.5 -33.5t-55.5 -84.5q21 -4 44 -11q9 37 39.5 61t69.5 24q82 0 144 -152q-7 -10 -8 -22q4 1 6 1q-2 -1 -7 -3v-1.5
v-1.5q0 -20 21 -38v0v0q-64 -20 -190 49q-65 35 -124 48t-94 9t-65.5 -18.5t-38.5 -21.5t-13 -14q-6 -7 -5 -16t8.5 -15t16.5 -5t15 9q3 3 10 9.5t31 16.5t53 12t78.5 -10.5t105.5 -42.5q107 -59 181 -59q12 0 28 3q0 -1 1 -2.5t1 -2.5h70v-178h-451v134q0 18 13.5 31
t32.5 13h149q-26 12 -47 24q-21 11 -44 21h-58q-38 0 -64.5 -26t-26.5 -63v-178h68v-401q0 -37 26.5 -63t63.5 -26h338h45h338q37 0 63.5 26t26.5 63v401h68l-1 178v0zM599 -83h-338q-19 0 -32 13t-13 31v401h383v-445v0zM734 673q0 14 -9 27q62 152 144 152q46 0 79 -32.5
t33 -78.5t-33 -79t-79 -33h-164q29 19 29 44v0zM621 651q-13 0 -25 2q-4 6 -10 9q-10 5 -21 -1q-11 6 -11 12q0 10 19.5 16.5t47.5 6.5t48 -6.5t20 -16t-20 -16t-48 -6.5v0zM1027 -39q0 -18 -13.5 -31t-31.5 -13h-338v445h383v-401v0zM1094 406h-450v178h225h180
q19 0 32 -13t13 -31v-134v0zM1094 406z" />
    <glyph glyph-name="shenhe" unicode="&#xe625;" 
d="M512 820q-92 0 -174.5 -35.5t-142.5 -95.5t-95.5 -143t-35.5 -174t35.5 -174t95.5 -143t142.5 -95t174 -35t174 35t142.5 95t95.5 143t35.5 174t-35.5 174t-95.5 143t-142.5 95.5t-173.5 35.5v0v0zM512 -12q-105 0 -193.5 51.5t-140 140t-51.5 192.5t51.5 193t140 140
t193 51t193 -51t140 -140t51.5 -193t-51.5 -192.5t-140 -140t-192.5 -51.5v0v0zM447 273l-127 99l-64 -64l214 -193q5 12 15 32t41 77t63.5 107.5t81.5 109.5t98 96l-18 27v0q-64 -32 -154 -119q-78 -75 -150 -172v0v0z" />
    <glyph glyph-name="tishi" unicode="&#xe626;" 
d="M981 581q-40 92 -109 161t-161.5 109t-197.5 40t-197 -40t-161 -109t-109 -161.5t-40 -197.5t40 -197t109 -161t161 -109t197 -40t197.5 40t161.5 109t109 161t40 197t-40 198v0zM513 56q-24 0 -40.5 16.5t-16.5 40.5t16.5 41t40.5 17t41 -17t17 -41t-17 -40.5t-41 -16.5
v0zM571 294q0 -23 -17 -40t-41 -17t-40.5 17t-16.5 40v360q0 24 16.5 40.5t40.5 16.5t41 -16.5t17 -40.5v-360v0zM571 294z" />
    <glyph glyph-name="tingzhi" unicode="&#xe627;" 
d="M513 888q-103 0 -196 -40t-160.5 -107.5t-107 -160.5t-39.5 -195.5t39.5 -195.5t107 -160.5t160.5 -107t195.5 -39.5t195.5 39.5t160.5 107t107.5 160.5t40 195.5t-40 195.5t-107.5 160.5t-160.5 107.5t-195 40v0zM513 -46q-117 0 -216.5 57.5t-157 157t-57.5 216.5
t57.5 216t157 157t216.5 58t216 -58t157 -157t58 -216t-58 -216.5t-157 -157t-216 -57.5v0zM382 525h276v-298h-276v298zM680 245q0 -8 -5 -13t-13 -5h-287q-8 0 -13 5t-5 13v287q0 8 5 13t13 5h287q8 0 13 -5t5 -13v-287zM391 263h253v251h-253v-251z" />
    <glyph glyph-name="xiazai" unicode="&#xe628;" 
d="M633 224q-8 9 -20 9t-21 -9l-44 -45v238q0 12 -8.5 20.5t-20.5 8.5h-9q-12 0 -20.5 -8.5t-8.5 -20.5v-242l-48 49q-9 9 -21 9t-20 -9l-6 -6q-9 -8 -9 -20t9 -21l105 -107q9 -9 22 -8q12 -1 21 8l106 107q8 9 8 21t-8 20zM916 493q-34 40 -79 55q-10 113 -88 193
q-42 43 -98 67t-118 24q-92 0 -168 -52q-68 -45 -104 -118q-80 -13 -134 -71q-63 -67 -63 -161q0 -98 68 -167v0q67 -69 163 -70v71q-68 0 -114 48q-48 48 -48 118q0 65 44 113t108 51q22 1 30 22q28 66 88 106q59 40 130 40q98 0 167 -71q70 -71 70 -170q0 -13 8 -23
t20 -12q40 -7 66 -38q25 -32 25 -72q0 -47 -32 -79q-31 -33 -77 -33v0h-12v-71h12h1q72 2 125 54q52 54 52 129q0 65 -42 117zM895 -32q0 -13 -8.5 -21.5t-20.5 -8.5h-710q-12 0 -20.5 8.5t-8.5 21.5v6q0 12 8.5 20.5t20.5 8.5h710q12 0 20.5 -8.5t8.5 -20.5v-6z" />
    <glyph glyph-name="xianshihoumai" unicode="&#xe629;" 
d="M336 504q3 -10 12 -14.5t17.5 -1t12.5 12.5t0 18l-21 56q-3 10 -12 14.5t-17.5 1t-12.5 -12.5t0 -19zM671 531q6 -8 16 -9.5t17 4.5t7.5 16t-6.5 18l-26 27q-6 7 -16 8.5t-17 -4.5t-7.5 -16t6.5 -17zM731.5 230.5q-8.5 4.5 -17.5 1.5t-15 -12l-7 -11q-69 88 -69 246v9h65
q10 0 17.5 7t7.5 16t-7.5 16t-17.5 7h-65l-1 82q0 11 -6.5 18t-16 7t-16 -7t-6.5 -18v-82h-142q-10 0 -17.5 -7t-7.5 -16t7.5 -16t17.5 -7h142v-11q0 -63 12 -119.5t29.5 -91t31 -54t21.5 -24.5q28 -20 41 -6l4 6l0.5 1t1.5 1l21 31q5 9 3 19t-10.5 14.5zM380 213v210
q0 17 -15 23q-7 4 -14 4h-51q-11 0 -18.5 -7t-7.5 -17t7.5 -17t18.5 -7h35v-228q0 -10 6.5 -17.5t15.5 -7.5q3 0 6 1q8 1 14 6l30 22q8 6 9.5 16t-5.5 17q-5 7 -14 7.5t-17 -5.5zM561 239l-41 -4v128h15q10 0 17.5 6.5t7.5 16t-7.5 16t-17.5 6.5l-76 -1q-10 0 -17.5 -6.5
t-7.5 -16t7.5 -16t17.5 -6.5h15v-130l-17 -2q-10 -1 -17 -8t-6 -16.5t9 -15.5t18 -5l104 9q11 1 17.5 8t5.5 16.5t-8.5 15.5t-18.5 5zM511 813q-117 0 -216.5 -58t-157.5 -157.5t-58 -216.5t58 -216.5t157.5 -157.5t216.5 -58t216.5 58t157.5 157.5t58 216.5t-58 216.5
t-157.5 157.5t-216.5 58zM511 4q-102 0 -189 50.5t-137 137.5t-50 189t50 188.5t137 137t189 50.5t189 -50.5t137 -137t50 -188.5t-50 -189t-137 -137.5t-189 -50.5z" />
    <glyph glyph-name="yishenpi" unicode="&#xe62a;" 
d="M512 890q-103 0 -197 -40t-161.5 -108t-108 -161.5t-40.5 -196.5t40.5 -197t108 -162t161.5 -108t197 -40t197 40t161.5 108t108 162t40.5 197t-40.5 196.5t-108 161.5t-161.5 108t-197 40zM454 187l-196 193l44 46l155 -156l330 310l38 -48z" />
    <glyph glyph-name="yulan5" unicode="&#xe62b;" 
d="M512 896q-104 0 -198.5 -40.5t-163 -109t-109 -163t-40.5 -198.5t40.5 -198.5t109 -163t163 -109t198.5 -40.5t198.5 40.5t163 109t109 163t40.5 198.5t-40.5 198.5t-109 163t-163 109t-198.5 40.5zM682 351l-272 -204v477l272 -205v-68z" />
    <glyph glyph-name="zanting1" unicode="&#xe62c;" 
d="M512 896q-104 0 -199 -40.5t-163.5 -109t-109 -163.5t-40.5 -199t40.5 -199t109 -163.5t163.5 -109t199 -40.5t199 40.5t163.5 109t109 163.5t40.5 199t-40.5 199t-109 163.5t-163.5 109t-199 40.5zM512 -64q-91 0 -174 35.5t-143 95.5t-95.5 143t-35.5 174t35.5 174
t95.5 143t143 95.5t174 35.5t174 -35.5t143 -95.5t95.5 -143t35.5 -174t-35.5 -174t-95.5 -143t-143 -95.5t-174 -35.5zM743 424l-280 171l-4 2q-23 10 -47 10q-30 0 -47.5 -18.5t-17.5 -48.5v-325l1 -5q6 -17 22.5 -32.5t41.5 -15.5v0q18 0 37 10l277 157l3 2
q10 7 17.5 19.5t9.5 30t-9 35.5zM419 229q-4 -3 -7 -3q-1 1 -1 2v312v3q9 1 21 -4l257 -157z" />
    <glyph glyph-name="zanting3" unicode="&#xe62d;" 
d="M512 772q-105 0 -194.5 -52t-141.5 -141.5t-52 -194.5t52 -194.5t141.5 -141.5t194.5 -52t194.5 52t141.5 141.5t52 194.5t-52 194.5t-141.5 141.5t-194.5 52zM329 162v444h132v-444h-132zM563 162v444h132v-444h-132z" />
    <glyph glyph-name="zanting" unicode="&#xe62e;" 
d="M512 832q-91 0 -174 -35.5t-143 -95.5t-95.5 -143t-35.5 -174t35.5 -174t95.5 -143t143 -95.5t174 -35.5t174 35.5t143 95.5t95.5 143t35.5 174t-35.5 174t-95.5 143t-143 95.5t-174 35.5zM512 -32q-113 0 -209 55.5t-151.5 151.5t-55.5 209t55.5 209t151.5 151.5
t209 55.5t209 -55.5t151.5 -151.5t55.5 -209t-55.5 -209t-151.5 -151.5t-209 -55.5zM384 512h96v-256h-96v256zM544 512h96v-256h-96v256z" />
    <glyph glyph-name="qingli1" unicode="&#xe63e;" 
d="M892 348h-16v-247q0 -32 4 -65t8 -51l4 -17q0 -14 -9.5 -23.5t-22.5 -9.5h-696q-13 0 -22.5 9.5t-9.5 23.5q16 59 16 130v250h-16q-13 0 -22.5 9.5t-9.5 22.5v162q0 13 9.5 22.5t22.5 9.5h275v178q0 33 23.5 57t57.5 24h48q34 0 57.5 -24t23.5 -57v-178h275
q13 0 22.5 -9.5t9.5 -22.5v-162q0 -13 -9.5 -22.5t-22.5 -9.5v0zM334 -32v214q0 5 3.5 8.5t8.5 3.5h8q5 0 8.5 -3.5t3.5 -8.5v-214h138v214q0 5 3.5 8.5t8.5 3.5h8q5 0 8.5 -3.5t3.5 -8.5v-214h130v214q0 5 3.5 8.5t8.5 3.5h8q5 0 8.5 -3.5t3.5 -8.5v-214h162
q-17 58 -17 130v250h-662v-250q0 -15 -1 -30t-2.5 -27.5t-3.5 -24t-3.5 -20t-3 -15t-2.5 -10l-1 -3.5h170v0zM892 526q0 6 -5 11t-11 5h-291v202q0 23 -16.5 39.5t-40.5 16.5h-32q-24 0 -40.5 -16.5t-16.5 -39.5v-202h-291q-6 0 -11 -5t-5 -11v-130q0 -6 5 -11t11 -5h33h662
h33q6 0 11 5t5 11v130v0zM892 526zM892 348h-16v-247q0 -32 4 -65t8 -51l4 -17q0 -14 -9.5 -23.5t-22.5 -9.5h-696q-13 0 -22.5 9.5t-9.5 23.5q16 59 16 130v250h-16q-13 0 -22.5 9.5t-9.5 22.5v162q0 13 9.5 22.5t22.5 9.5h275v178q0 33 23.5 57t57.5 24h48q34 0 57.5 -24
t23.5 -57v-178h275q13 0 22.5 -9.5t9.5 -22.5v-162q0 -13 -9.5 -22.5t-22.5 -9.5v0zM334 -32v214q0 5 3.5 8.5t8.5 3.5h8q5 0 8.5 -3.5t3.5 -8.5v-214h138v214q0 5 3.5 8.5t8.5 3.5h8q5 0 8.5 -3.5t3.5 -8.5v-214h130v214q0 5 3.5 8.5t8.5 3.5h8q5 0 8.5 -3.5t3.5 -8.5v-214
h162q-17 58 -17 130v250h-662v-250q0 -15 -1 -30t-2.5 -27.5t-3.5 -24t-3.5 -20t-3 -15t-2.5 -10l-1 -3.5h170v0zM892 526q0 6 -5 11t-11 5h-291v202q0 23 -16.5 39.5t-40.5 16.5h-32q-24 0 -40.5 -16.5t-16.5 -39.5v-202h-291q-6 0 -11 -5t-5 -11v-130q0 -6 5 -11t11 -5h33
h662h33q6 0 11 5t5 11v130v0zM892 526z" />
    <glyph glyph-name="computers" unicode="&#xe640;" horiz-adv-x="1530" 
d="M388 896h-354q-14 0 -24 -13t-10 -31v-936q0 -18 10 -31t24 -13h354q15 0 25 13t10 31v936q0 18 -10 31t-25 13zM392 -57q0 -16 -11.5 -26.5t-28.5 -10.5h-281q-17 0 -28.5 10.5t-11.5 26.5v289l25 -289q0 -7 4.5 -12.5t10.5 -5.5h281q6 0 10.5 5.5t4.5 12.5l25 289v-289
zM112 631h198q13 0 22 -8.5t9 -20.5v-40q0 -11 -9 -19.5t-22 -8.5h-198q-12 0 -21.5 8.5t-9.5 19.5v40q0 12 9.5 20.5t21.5 8.5zM81 694v40q0 12 9.5 20.5t21.5 8.5h198q13 0 22 -8.5t9 -20.5v-40q0 -11 -9 -19.5t-22 -8.5h-198q-12 0 -21.5 8.5t-9.5 19.5zM211.5 165
q-28.5 0 -48 20t-19.5 48t19.5 48t48 20t48 -20t19.5 -48t-19.5 -48t-48 -20zM244 64.5q0 -13.5 -9.5 -23t-23 -9.5t-23.5 9.5t-10 23t10 23.5t23.5 10t23 -10t9.5 -23.5zM184 414q-7 0 -12.5 5t-5.5 12.5t5.5 13t12.5 5.5h129q8 0 13.5 -5.5t5.5 -13t-5.5 -12.5t-13.5 -5
h-129zM392 539l-25 290q0 7 -4.5 12t-10.5 5h-281q-6 0 -10.5 -5t-4.5 -12l-25 -290v290q0 15 11.5 26t28.5 11h281q17 0 28.5 -11t11.5 -26v-290zM257 671h5q5 0 9 3.5t4 8.5t-4 9t-9 4h-5q-5 0 -8.5 -4t-3.5 -9t3.5 -8.5t8.5 -3.5zM295 671h5q5 0 8.5 3.5t3.5 8.5t-3.5 9
t-8.5 4h-5q-5 0 -9 -4t-4 -9t4 -8.5t9 -3.5zM260 544h5q5 0 8.5 3.5t3.5 9t-3.5 9t-8.5 3.5h-5q-5 0 -9 -3.5t-4 -9t4 -9t9 -3.5zM297 544h5q6 0 9.5 3.5t3.5 9t-3.5 9t-9.5 3.5h-5q-5 0 -8.5 -3.5t-3.5 -9t3.5 -9t8.5 -3.5zM1086 333q-91 -41 -207.5 -79.5t-193.5 -57
t-77 -8.5v456q0 13 9.5 22.5t22.5 9.5h777q13 0 22.5 -9.5t9.5 -22.5q-7 -9 -19 -24.5t-50.5 -58t-79 -80t-99.5 -80t-115 -68.5zM1490 739h-929q-16 0 -27 -11.5t-11 -27.5v-597q0 -16 11 -27.5t27 -11.5h929q16 0 27.5 11.5t11.5 27.5v597q0 16 -11.5 27.5t-27.5 11.5z
M1473 136q0 -14 -10 -24t-24 -10h-826q-14 0 -24 10t-10 24v531q0 14 10 24t24 10h826q14 0 24 -10t10 -24v-531zM1026 4q-92 0 -166.5 -36.5t-108.5 -95.5h550q-34 59 -108.5 95.5t-166.5 36.5zM852 -108l-61 -2q3 3 7.5 9t21 20.5t36.5 27t54 24.5t71 16
q-33 -12 -58.5 -26.5t-38 -25.5t-21 -22t-10 -15.5t-1.5 -5.5z" />
    <glyph glyph-name="diannao1" unicode="&#xe641;" 
d="M1022 127h-1016v650h1016v-650zM36 157h955v590h-955v-590zM726 -20h-424q-6 0 -10.5 4.5t-4.5 11t4.5 11t10.5 4.5h424v0q6 0 10.5 -4.5t4.5 -11t-4.5 -11t-10.5 -4.5z" />
    <glyph glyph-name="shandianfahuo" unicode="&#xe60a;" 
d="M693 425h-188q-7 0 -10 4.5t0 10.5l10 21q79 157 87 173q9 17 0 30t-23 13h-106q-17 -1 -25 -16q-2 -5 -64.5 -148t-66.5 -151q-7 -14 0 -28.5t25 -14.5h181v0v0q6 0 10.5 -4.5t4.5 -10.5v-3l-3.5 -21t-8 -51t-9.5 -60.5t-8.5 -53.5t-4.5 -27q-2 -7 5.5 -9.5t11.5 3.5
q100 151 202 301q10 17 2.5 29.5t-22.5 12.5zM512 873q99 0 190 -39q81 -34 150 -106.5t109 -164t40 -179.5t-40 -179.5t-109 -164t-150 -106.5q-90 -39 -190 -39t-190 39q-37 15 -82.5 45.5t-73.5 58.5q-59 60 -101 161t-42 185v0v1q0 84 42 185t101 160q60 59 161 101
t184 42h1zM512 896q-139 0 -257 -68.5t-186.5 -186.5t-68.5 -257t68.5 -257t186.5 -186.5t257 -68.5t257 68.5t186.5 186.5t68.5 257t-68.5 257t-186.5 186.5t-257 68.5v0z" />
    <glyph glyph-name="Group" unicode="&#xe642;" 
d="M826 -90q-64 0 -160 39q-9 4 -11 9t-2 16q6 13 25 13q76 -33 136.5 -34t87.5 28q30 28 28.5 88t-34.5 136q-67 163 -243 339q-138 137 -281.5 213.5t-230.5 61.5q-13 0 -26 13q-6 6 13 26q100 19 250 -59t300 -223q185 -184 250 -352q77 -182 0 -269q-27 -45 -102 -45z
M506 45q-7 0 -13 6q-115 90 -173 147q-130 130 -209 271t-79 241q0 20 19 20t19 -20q0 -91 75.5 -223t200.5 -257q89 -89 166 -140q6 -6 8 -13t-2 -13q0 -19 -12 -19zM397 384q0 -48 33.5 -81.5t81.5 -33.5t81.5 33.5t33.5 81.5t-33.5 81.5t-81.5 33.5t-81.5 -33.5
t-33.5 -81.5zM512 250q-58 0 -99.5 41.5t-41.5 99t41.5 99t99.5 41.5t99.5 -41.5t41.5 -99t-41.5 -99t-99.5 -41.5zM512 474q-38 0 -64 -26t-26 -64t26 -64t64 -26t64 26t26 64t-26 64t-64 26zM32 787q0 -13 9.5 -22.5t22.5 -9.5t22.5 9.5t9.5 22.5t-9.5 22.5t-22.5 9.5
t-22.5 -9.5t-9.5 -22.5zM928 627q0 -13 9.5 -22.5t22.5 -9.5t22.5 9.5t9.5 22.5t-9.5 22.5t-22.5 9.5t-22.5 -9.5t-9.5 -22.5zM563 6.5q0 -13.5 9.5 -23t22.5 -9.5t22.5 9.5t9.5 23t-9.5 22.5t-22.5 9t-22.5 -9t-9.5 -22.5zM186 -90q-71 0 -109.5 38.5t-38.5 108t39 161.5
q65 167 249.5 351.5t351.5 249.5q183 77 269 0q39 -38 39 -102q0 -19 -19.5 -19t-19.5 19q0 38 -25 77q-28 29 -88.5 27.5t-135.5 -34.5q-164 -67 -340 -243t-243 -339q-33 -76 -34 -136t28 -88q24 -25 69 -28t103 15.5t122.5 53.5t134.5 89t134 119q144 144 224 295
q5 9 13 10.5t13 -4.5q9 -4 10 -12.5t-4 -12.5q-77 -154 -230 -308q-134 -133 -272.5 -210.5t-239.5 -77.5z" />
    <glyph glyph-name="shezhi-qinglihuancun" unicode="&#xe643;" 
d="M941 342h-19v-281q0 -36 4.5 -74t9.5 -58l5 -20v0q0 -15 -11 -26t-26 -11h-784q-15 0 -26 11t-11 26v0v0q19 69 19 148v285h-19q-15 0 -25.5 11t-10.5 26v0v185v0q0 15 10.5 25.5t25.5 10.5h310v203q0 38 27 65.5t65 27.5h54q38 0 65 -27.5t27 -65.5v-203h310
q15 0 25.5 -10.5t10.5 -25.5v0v-185v0q0 -15 -10.5 -26t-25.5 -11v0zM311 -91v244q0 6 4.5 10t9.5 4h9q6 0 10 -4t4 -10v-244h155v244q0 6 4 10t10 4h9q5 0 9 -4t4 -10v-244h146v244q0 6 4 10t10 4h9q6 0 10 -4t4 -10v-244h182q-18 66 -18 148v285h-748v-285q0 -36 -4.5 -73
t-9.5 -56l-4 -19h191v0zM941 545v0q0 8 -5.5 13t-13.5 6h-328v230v1q0 26 -18.5 45t-45.5 19v0h-36v0q-27 0 -45.5 -19t-18.5 -45v-1v-230h-328q-8 0 -13.5 -5.5t-5.5 -13.5v0v-147q0 -8 5.5 -13.5t13.5 -5.5h820q8 0 13.5 5.5t5.5 13.5v0v147v0zM941 342h-19v-281
q0 -36 4.5 -74t9.5 -58l5 -20v0q0 -15 -11 -26t-26 -11h-784q-15 0 -26 11t-11 26v0v0q19 69 19 148v285h-19q-15 0 -25.5 11t-10.5 26v0v185v0q0 15 10.5 25.5t25.5 10.5h310v203q0 38 27 65.5t65 27.5h54q38 0 65 -27.5t27 -65.5v-203h310q15 0 25.5 -10.5t10.5 -25.5v0
v-185v0q0 -15 -10.5 -26t-25.5 -11v0zM311 -79v232q0 6 4.5 10t9.5 4h9q6 0 10 -4t4 -10v-232h155v232q0 6 4 10t10 4h9q5 0 9 -4t4 -10v-232h146v232q0 6 4 10t10 4h9q6 0 10 -4t4 -10v-232h170q-18 54 -18 136v285h-724v-285q0 -82 -18 -136v0h179v-12v12zM929 533v0
q0 8 -5.5 13.5t-12.5 5.5h-329v242q0 26 -17.5 39.5t-45.5 13.5h-13q-29 0 -46.5 -13.5t-17.5 -39.5v-242h-329q-7 0 -12.5 -5.5t-5.5 -13.5v0v-123q0 -8 5.5 -13.5t12.5 -5.5h798q7 0 12.5 5.5t5.5 12.5v0v124h12h-12z" />
    <glyph glyph-name="loudong" unicode="&#xe644;" 
d="M128 414h789q0 2 -1 7q-45 186 -161 270l68 120l-59 38l-77 -119q-75 34 -175 34q-87 0 -158 -26l-68 111l-56 -38l69 -107q-48 -31 -83.5 -76t-52.5 -90t-25 -73.5t-10 -50.5zM699.5 619q25.5 0 42.5 -17t17 -43t-17 -43t-42.5 -17t-42.5 17t-17 43q-3 22 15.5 41t44 19
zM354 619q26 0 43 -17t17 -43t-17 -43t-42.5 -17t-43 17t-17.5 43q0 23 17.5 41.5t42.5 18.5zM525 218q-9 -26 -9 -47l77 4q0 8 4 8zM550 26l56 93q-17 18 -17 39l-107 -9q6 -75 68 -123zM794 102q12 32 12 64q0 22 -8 56l-68 -30q4 -9 4 -21q0 -17 -4 -26zM828 166
q0 -25 -17 -76l94 -60v239l-90 -43q13 -25 13 -60zM704 341l-17 -102q22 -7 34 -26l188 86v42h-209h4zM704 111l13 -30q20 10 25 26l-25 17zM730 64l64 -128l-22 -9l-85 175q-2 0 -6.5 -2t-6.5 -2l4 -183h231v94l-141 89q-21 -28 -38 -34zM461 145l-98 -8v21l128 8
q0 30 12 56l-145 64l9 21l235 -102l12 13l-76 123h-410v-426h363l51 89q-35 26 -56.5 63t-24.5 78zM649 98q-9 0 -26 9l-34 -64q23 -17 64 -17zM576 21l-64 -106h137v85q-37 0 -73 21zM563 341l68 -106q9 4 26 4h4l17 102h-115z" />
    <glyph glyph-name="arrows_down" unicode="&#xe6b4;" 
d="M514 144v0q-9 0 -15 6.5t-6 15t6 15.5l422 422q7 6 15.5 6t15 -6t6.5 -15t-6 -15l-423 -423q-6 -6 -15 -6v0zM510 144v0q-9 0 -15 6l-423 423q-6 6 -6 15t6.5 15t15 6t15.5 -6l422 -422q6 -7 6 -15.5t-6 -15t-15 -6.5v0z" />
    <glyph glyph-name="close_line" unicode="&#xe6bf;" 
d="M210 61v0q-9 0 -15 6t-6 15t6 15l604 604q6 6 15 6t15 -6t6 -15t-6 -15l-604 -604q-6 -6 -15 -6v0zM814 61v0q-9 0 -15 6l-604 604q-6 6 -6 15t6 15t15 6t15 -6l604 -604q6 -6 6 -15t-6 -15t-15 -6v0z" />
    <glyph glyph-name="more_point" unicode="&#xe6cc;" 
d="M213 384zM149 383.5q0 -26.5 19 -45t45.5 -18.5t45 18.5t18.5 45t-18.5 45.5t-45 19t-45.5 -19t-19 -45.5zM512 384zM448 384.5q0 -26.5 19 -45.5t45.5 -19t45 19t18.5 45.5t-18.5 45t-45 18.5t-45.5 -18.5t-19 -45zM811 384zM747 384.5q0 -26.5 18.5 -45.5t45 -19
t45.5 19t19 45.5t-19 45t-45.5 18.5t-45 -18.5t-18.5 -45z" />
    <glyph glyph-name="reduce" unicode="&#xe6d4;" 
d="M939 363h-854q-8 0 -14.5 6t-6.5 15t6.5 15t14.5 6h854q8 0 14.5 -6t6.5 -15t-6.5 -15t-14.5 -6z" />
    <glyph glyph-name="xianshishangou" unicode="&#xe645;" 
d="M378 -19q-1 0 -1.5 0.5t-0.5 2.5l62 374h-123q-1 0 -2 1q0 1 1 4l328 420q2 2 4 2t2.5 -0.5t-0.5 -1.5l-62 -374h123q1 0 2 -1q0 -2 -1 -5l-328 -419q-2 -3 -4 -3zM512 -14q-15 0 -29 1q-10 1 -16.5 8.5t-6.5 17.5q1 9 8 15.5t16 6.5h2q14 -1 28 -1q111 0 202 65.5
t127 171.5q38 113 -0.5 226t-138.5 178q-9 5 -11 15t3 19q8 11 21 11q7 0 13 -4q114 -75 158.5 -203.5t0.5 -257.5q-41 -121 -145 -195t-232 -74zM308 47q-8 0 -14 4q-114 74 -158.5 202.5t-0.5 257.5q41 121 145 195.5t232 74.5q15 0 30 -2q10 0 16.5 -7.5t5.5 -18.5
q-1 -9 -8 -15.5t-17 -6.5h-1q-14 1 -26 1q-112 0 -203.5 -65.5t-127.5 -171.5q-38 -113 1 -226t139 -178q8 -5 10.5 -15t-3.5 -18q-7 -11 -20 -11z" />
    <glyph glyph-name="huojian3" unicode="&#xe646;" 
d="M558 117l-212 108q-46 195 45 374q64 126 179 203.5t251 91.5q68 -118 72.5 -254.5t-59.5 -266.5q-45 -89 -116.5 -154t-159.5 -102zM674 622q18 -9 37 -3t28 24t3 37t-24 28t-37 2.5t-28 -24t-3 -36.5t24 -28zM428 539q-1 0 -2 0.5t-2 0.5q-77 12 -135.5 -7t-106.5 -70
q-22 -23 -40.5 -70t-9.5 -62q19 26 46.5 43t51 25t57.5 10.5t51 1.5t47 -3.5l30 -2.5l3 -1zM770 370q0 -1 1.5 -1.5l1.5 -0.5q55 -56 74 -114t6 -127q-6 -32 -33 -74.5t-44 -44.5q7 23 8 47t-3 44.5t-13.5 42t-19 37.5t-22.5 34t-22 28.5t-20.5 23t-14.5 15.5q-1 1 -2 3z
M521 120q-5 -54 -31 -104q-30 -59 -80.5 -97t-106.5 -46q-26 48 -25 112t31 123q26 50 66 86q-7 -74 24 -132q66 9 122 58z" />
  </font>
</defs>
</svg>
